PathFileType	3	(X/Y/Z)	squats_2__view1_aligned.trc
DataRate	CameraRate	NumFrames	NumMarkers	Units	OrigDataRate	OrigDataStartFrame	OrigNumFrames
100.0	100.0	15	19	mm	100.0	145	1550
Frame#	Time	pelvis			neck			head			hip_left			hip_right			knee_left			knee_right			ankle_left			ankle_right			heel_left			heel_right			toe_left			toe_right			shoulder_left			shoulder_right			elbow_left			elbow_right			wrist_left			wrist_right			
		X1	Y1	Z1	X2	Y2	Z2	X3	Y3	Z3	X4	Y4	Z4	X5	Y5	Z5	X6	Y6	Z6	X7	Y7	Z7	X8	Y8	Z8	X9	Y9	Z9	X10	Y10	Z10	X11	Y11	Z11	X12	Y12	Z12	X13	Y13	Z13	X14	Y14	Z14	X15	Y15	Z15	X16	Y16	Z16	X17	Y17	Z17	X18	Y18	Z18	X19	Y19	Z19	
145	1.44000	31.668752	938.431805	-37.982598	85.695521	1501.768679	-91.304105	98.054529	1643.972147	-199.888692	-43.541067	947.348591	-35.440569	106.878743	929.515012	-40.524794	-117.586748	534.167025	12.668250	130.422111	508.317254	-18.786852	-162.957585	156.296374	139.439989	139.350944	123.162732	91.954958	-158.047531	113.742059	178.811556	136.785152	82.795699	134.119140	-210.871572	85.899326	-34.945836	154.419145	32.156345	-80.211613	-93.098234	1457.416111	-48.786015	254.074848	1441.888069	-44.654733	-267.592784	1217.867157	-108.409103	415.648654	1213.950451	-148.229158	-372.097617	1250.668424	-347.827664	522.225220	1429.399568	-307.273061
146	1.45000	30.058095	938.604163	-35.763421	84.129584	1502.196494	-88.806450	96.623703	1644.315875	-197.398301	-45.190444	947.467405	-33.264897	105.306805	929.740913	-38.262114	-118.972029	534.180213	14.009295	129.438796	508.549946	-17.651625	-164.184654	156.317759	140.698770	138.834413	123.314635	92.538447	-159.260544	113.748294	180.060855	136.326578	82.954303	134.705954	-212.116957	86.069058	-33.720088	153.770359	32.183669	-79.621144	-95.323990	1458.149730	-47.249520	253.133535	1441.953378	-43.637894	-266.549068	1217.507304	-108.346464	407.061334	1212.154461	-148.519232	-361.414288	1253.800832	-348.924099	502.296606	1423.983044	-308.889584
147	1.46000	28.447438	938.776522	-33.544244	82.563647	1502.624310	-86.308794	95.192876	1644.659604	-194.907909	-46.839820	947.586220	-31.089224	103.734867	929.966815	-35.999434	-120.357311	534.193401	15.350340	128.455481	508.782639	-16.516397	-165.411722	156.339143	141.957550	138.317881	123.466538	93.121935	-160.473557	113.754528	181.310155	135.868004	83.112906	135.292769	-213.362341	86.238791	-32.494340	153.121573	32.210994	-79.030674	-97.549746	1458.883350	-45.713025	252.192223	1442.018688	-42.621055	-265.505352	1217.147450	-108.283826	398.474014	1210.358471	-148.809306	-350.730959	1256.933240	-350.020534	482.367992	1418.566520	-310.506106
148	1.47000	26.836781	938.948880	-31.325067	80.997710	1503.052125	-83.811138	93.762050	1645.003332	-192.417518	-48.489197	947.705035	-28.913551	102.162929	930.192716	-33.736753	-121.742592	534.206590	16.691385	127.472166	509.015331	-15.381170	-166.638790	156.360528	143.216331	137.801350	123.618441	93.705424	-161.686570	113.760763	182.559454	135.409430	83.271509	135.879584	-214.607726	86.408524	-31.268592	152.472787	32.238318	-78.440205	-99.775502	1459.616969	-44.176530	251.250910	1442.083997	-41.604216	-264.461637	1216.787597	-108.221188	389.886694	1208.562480	-149.099379	-340.047630	1260.065648	-351.116968	462.439377	1413.149996	-312.122628
149	1.48000	25.226125	939.121238	-29.105890	79.431773	1503.479941	-81.313482	92.331224	1645.347061	-189.927127	-50.138574	947.823850	-26.737878	100.590991	930.418618	-31.474073	-123.127873	534.219778	18.032429	126.488851	509.248024	-14.245942	-167.865859	156.381913	144.475112	137.284818	123.770343	94.288913	-162.899583	113.766998	183.808753	134.950856	83.430112	136.466399	-215.853110	86.578256	-30.042844	151.824002	32.265643	-77.849735	-102.001258	1460.350588	-42.640034	250.309598	1442.149307	-40.587377	-263.417921	1216.427743	-108.158550	381.299374	1206.766490	-149.389453	-329.364301	1263.198057	-352.213403	442.510763	1407.733473	-313.739150
150	1.49000	23.615468	939.293596	-26.886713	77.865837	1503.907756	-78.815826	90.900398	1645.690789	-187.436736	-51.787950	947.942665	-24.562206	99.019053	930.644520	-29.211392	-124.513155	534.232966	19.373474	125.505535	509.480716	-13.110715	-169.092927	156.403297	145.733893	136.768287	123.922246	94.872402	-164.112596	113.773232	185.058052	134.492282	83.588715	137.053213	-217.098495	86.747989	-28.817096	151.175216	32.292967	-77.259266	-104.227013	1461.084208	-41.103539	249.368285	1442.214616	-39.570538	-262.374205	1216.067890	-108.095911	372.712054	1204.970499	-149.679527	-318.680973	1266.330465	-353.309838	422.582149	1402.316949	-315.355673
151	1.50000	22.004811	939.465954	-24.667536	76.299900	1504.335572	-76.318170	89.469572	1646.034518	-184.946345	-53.437327	948.061479	-22.386533	97.447115	930.870421	-26.948712	-125.898436	534.246154	20.714519	124.522220	509.713409	-11.975487	-170.319996	156.424682	146.992674	136.251755	124.074149	95.455890	-165.325610	113.779467	186.307351	134.033708	83.747318	137.640028	-218.343879	86.917721	-27.591348	150.526430	32.320292	-76.668796	-106.452769	1461.817827	-39.567044	248.426973	1442.279925	-38.553699	-261.330490	1215.708036	-108.033273	364.124734	1203.174509	-149.969600	-307.997644	1269.462873	-354.406273	402.653534	1396.900425	-316.972195
152	1.51000	20.394154	939.638313	-22.448359	74.733963	1504.763387	-73.820515	88.038745	1646.378246	-182.455954	-55.086704	948.180294	-20.210860	95.875177	931.096323	-24.686032	-127.283717	534.259343	22.055564	123.538905	509.946101	-10.840259	-171.547064	156.446066	148.251454	135.735224	124.226052	96.039379	-166.538623	113.785702	187.556650	133.575135	83.905921	138.226843	-219.589264	87.087454	-26.365600	149.877644	32.347616	-76.078327	-108.678525	1462.551446	-38.030549	247.485660	1442.345235	-37.536860	-260.286774	1215.348183	-107.970635	355.537413	1201.378518	-150.259674	-297.314315	1272.595281	-355.502707	382.724920	1391.483901	-318.588717
153	1.52000	18.783497	939.810671	-20.229182	73.168026	1505.191202	-71.322859	86.607919	1646.721974	-179.965563	-56.736081	948.299109	-18.035188	94.303239	931.322225	-22.423351	-128.668999	534.272531	23.396608	122.555590	510.178794	-9.705032	-172.774132	156.467451	149.510235	135.218692	124.377955	96.622868	-167.751636	113.791937	188.805950	133.116561	84.064524	138.813658	-220.834648	87.257187	-25.139852	149.228858	32.374941	-75.487858	-110.904281	1463.285065	-36.494054	246.544347	1442.410544	-36.520021	-259.243058	1214.988330	-107.907997	346.950093	1199.582528	-150.549748	-286.630986	1275.727689	-356.599142	362.796306	1386.067378	-320.205239
154	1.53000	17.172841	939.983029	-18.010005	71.602089	1505.619018	-68.825203	85.177093	1647.065703	-177.475172	-58.385457	948.417924	-15.859515	92.731301	931.548126	-20.160671	-130.054280	534.285719	24.737653	121.572275	510.411486	-8.569804	-174.001201	156.488836	150.769016	134.702160	124.529857	97.206356	-168.964649	113.798171	190.055249	132.657987	84.223127	139.400473	-222.080033	87.426919	-23.914104	148.580072	32.402265	-74.897388	-113.130037	1464.018685	-34.957559	245.603035	1442.475854	-35.503182	-258.199343	1214.628476	-107.845358	338.362773	1197.786537	-150.839822	-275.947657	1278.860098	-357.695577	342.867691	1380.650854	-321.821761
155	1.54000	15.562184	940.155387	-15.790827	70.036152	1506.046833	-66.327547	83.746267	1647.409431	-174.984780	-60.034834	948.536738	-13.683842	91.159363	931.774028	-17.897990	-131.439561	534.298908	26.078698	120.588960	510.644179	-7.434577	-175.228269	156.510220	152.027797	134.185629	124.681760	97.789845	-170.177662	113.804406	191.304548	132.199413	84.381730	139.987287	-223.325417	87.596652	-22.688356	147.931286	32.429590	-74.306919	-115.355793	1464.752304	-33.421064	244.661722	1442.541163	-34.486343	-257.155627	1214.268623	-107.782720	329.775453	1195.990547	-151.129895	-265.264328	1281.992506	-358.792012	322.939077	1375.234330	-323.438284
156	1.55000	14.397317	940.282097	-14.161554	68.851268	1506.314251	-64.641940	82.637467	1647.548194	-173.380246	-61.227527	948.624798	-12.072517	90.022306	931.939388	-16.250751	-132.443541	534.318192	27.073585	119.849934	510.825780	-6.544675	-176.124053	156.546890	152.959035	133.775333	124.812593	98.267896	-171.066627	113.828577	192.231411	131.830929	84.518463	140.469706	-224.217695	87.729434	-21.781695	147.406116	32.450461	-73.819413	-117.011650	1465.221675	-32.351320	243.958890	1442.521366	-33.911598	-256.234219	1213.839673	-107.281820	323.360699	1194.455926	-150.995839	-257.289809	1282.995278	-358.652412	308.052938	1369.697133	-324.349513
157	1.56000	13.232450	940.408806	-12.532280	67.666383	1506.581670	-62.956333	81.528667	1647.686956	-171.775711	-62.420220	948.712857	-10.461193	88.885249	932.104749	-14.603511	-133.447521	534.337476	28.068472	119.110909	511.007381	-5.654773	-177.019836	156.583560	153.890274	133.365037	124.943426	98.745946	-171.955591	113.852749	193.158273	131.462446	84.655196	140.952124	-225.109972	87.862216	-20.875034	146.880946	32.471332	-73.331907	-118.667508	1465.691047	-31.281576	243.256058	1442.501569	-33.336853	-255.312811	1213.410723	-106.780920	316.945946	1192.921306	-150.861782	-249.315290	1283.998051	-358.512812	293.166799	1364.159937	-325.260742
158	1.57000	12.067583	940.535516	-10.903007	66.481498	1506.849088	-61.270726	80.419867	1647.825719	-170.171176	-63.612913	948.800917	-8.849868	87.748191	932.270109	-12.956271	-134.451501	534.356760	29.063359	118.371884	511.188982	-4.764871	-177.915619	156.620231	154.821512	132.954741	125.074259	99.223997	-172.844555	113.876920	194.085136	131.093962	84.791928	141.434543	-226.002249	87.994998	-19.968373	146.355776	32.492202	-72.844402	-120.323366	1466.160418	-30.211833	242.553226	1442.481772	-32.762108	-254.391403	1212.981773	-106.280020	310.531192	1191.386686	-150.727726	-241.340770	1285.000823	-358.373212	278.280659	1358.622740	-326.171971
159	1.58000	10.902716	940.662226	-9.273733	65.296613	1507.116506	-59.585120	79.311068	1647.964482	-168.566641	-64.805606	948.888976	-7.238543	86.611134	932.435470	-11.309032	-135.455481	534.376044	30.058246	117.632859	511.370583	-3.874969	-178.811403	156.656901	155.752751	132.544445	125.205092	99.702047	-173.733520	113.901091	195.011998	130.725479	84.928661	141.916961	-226.894526	88.127780	-19.061712	145.830606	32.513073	-72.356896	-121.979224	1466.629789	-29.142089	241.850394	1442.461974	-32.187363	-253.469995	1212.552823	-105.779119	304.116438	1189.852065	-150.593669	-233.366251	1286.003596	-358.233612	263.394520	1353.085543	-327.083200
